<svg xmlns="http://www.w3.org/2000/svg" width="25" height="25" viewBox="0 0 25 25"><g><g><path fill="#fff" d="M24.951 6.696l-1.05 7.88a2.962 2.962 0 0 1-1.002 1.827 2.96 2.96 0 0 1-1.943.752H12.202 6.503l.153 1.15c.094.708.778 1.308 1.494 1.308h14.767a.732.732 0 0 1 0 1.464h-1.918A2.696 2.696 0 0 1 18.604 25a2.696 2.696 0 0 1-2.394-3.922h-3.836A2.696 2.696 0 0 1 9.979 25a2.696 2.696 0 0 1-2.367-3.975c-.509-.1-.994-.339-1.405-.699a2.962 2.962 0 0 1-1.002-1.827L3.109 2.773c-.108-.811-.605-1.308-.84-1.308H.962A.732.732 0 0 1 .962 0h1.307C3.36 0 4.368 1.133 4.56 2.58l.18 1.342h17.785c.735 0 1.396.292 1.859.822.463.53.665 1.222.568 1.952zM9.98 21.078a1.23 1.23 0 0 0 0 2.457 1.23 1.23 0 0 0 0-2.457zm8.625 0a1.23 1.23 0 0 0 0 2.457 1.23 1.23 0 0 0 0-2.457zm3.92-15.69h-4.15l-.295 4.418h4.981l.44-3.304a.985.985 0 0 0-.218-.794.984.984 0 0 0-.757-.32zM16.22 15.69l.294-4.419h-3.922l.294 4.419zm.392-5.884l.294-4.419H12.2l.294 4.42zM4.935 5.387l.588 4.42h5.504l-.294-4.42zM6.307 15.69h5.112l-.294-4.419H5.719zm14.65 0c.715 0 1.399-.6 1.493-1.308l.415-3.11H17.98l-.294 4.418z"/></g></g></svg>