<svg xmlns="http://www.w3.org/2000/svg" width="29" height="26" viewBox="0 0 29 26"><g><g><g/><g><g><g><path fill="#fff" d="M27.988 10.378L14.722.661a.727.727 0 0 0-.859 0L.598 10.378a.728.728 0 0 0 .859 1.174L14.293 2.15l12.836 9.403a.726.726 0 0 0 1.016-.157.728.728 0 0 0-.157-1.017z"/></g></g></g><g><g><g><path fill="#fff" d="M24.477 11.72a.727.727 0 0 0-.727.728v11.58h-5.817v-6.322a3.641 3.641 0 0 0-3.636-3.637 3.641 3.641 0 0 0-3.636 3.637v6.322H4.844v-11.58a.727.727 0 1 0-1.454 0v12.307c0 .402.326.728.727.728h7.271a.727.727 0 0 0 .727-.728v-7.049c0-1.203.98-2.182 2.182-2.182 1.203 0 2.182.979 2.182 2.182v7.05a.727.727 0 0 0 .727.728h7.271a.727.727 0 0 0 .727-.729V12.448a.727.727 0 0 0-.727-.728z"/></g></g></g></g></g></svg>