<svg xmlns="http://www.w3.org/2000/svg" width="21" height="16" viewBox="0 0 21 16"><g><g><g><g><path fill="#515151" d="M17.86 0c1.348 0 2.444 1.1 2.44 2.45v10.325a2.447 2.447 0 0 1-2.445 2.445h-15.1A2.447 2.447 0 0 1 .31 12.775V2.445A2.447 2.447 0 0 1 2.754 0zm1.323 12.775V2.45a1.33 1.33 0 0 0-1.328-1.329h-15.1A1.33 1.33 0 0 0 1.426 2.45v10.325a1.33 1.33 0 0 0 1.327 1.328H17.86a1.33 1.33 0 0 0 1.328-1.328z"/></g><g><path fill="#515151" d="M12.92 7.485L17.81 3.1a.562.562 0 0 0 .041-.79.56.56 0 0 0-.79-.042L10.319 8.32 9.004 7.146c-.004-.004-.008-.009-.008-.013a.828.828 0 0 0-.091-.078L3.553 2.263a.557.557 0 0 0-.79.045.558.558 0 0 0 .045.79l4.947 4.424-4.926 4.615a.561.561 0 0 0 .765.819l5-4.68 1.357 1.212a.558.558 0 0 0 .745-.004l1.393-1.25 4.972 4.726a.558.558 0 0 0 .77-.811z"/></g></g></g></g></svg>