<svg xmlns="http://www.w3.org/2000/svg" width="21" height="15" viewBox="0 0 21 15"><g><g><g><g><path fill="#fff" d="M18.24 0c1.348 0 2.444 1.085 2.44 2.414V12.59c0 1.33-1.096 2.41-2.445 2.41h-15.1C1.785 15 .69 13.92.69 12.59V2.41C.69 1.08 1.786 0 3.134 0zm1.323 12.59V2.414a1.32 1.32 0 0 0-1.328-1.309h-15.1a1.32 1.32 0 0 0-1.328 1.31V12.59c0 .722.595 1.309 1.327 1.309H18.24a1.32 1.32 0 0 0 1.328-1.31z"/></g><g><path fill="#fff" d="M13.3 7.377l4.89-4.323a.548.548 0 0 0 .041-.779.567.567 0 0 0-.79-.04L10.699 8.2 9.384 7.043c-.004-.004-.008-.008-.008-.012a.824.824 0 0 0-.091-.078L3.933 2.231a.563.563 0 0 0-.79.044.545.545 0 0 0 .045.78l4.947 4.36-4.926 4.546a.547.547 0 0 0-.025.78.564.564 0 0 0 .79.028l5-4.613 1.357 1.195a.563.563 0 0 0 .745-.004l1.393-1.231 4.972 4.657c.107.102.248.15.385.15a.562.562 0 0 0 .405-.17.547.547 0 0 0-.02-.78z"/></g></g></g></g></svg>