<svg xmlns="http://www.w3.org/2000/svg" width="21" height="20" viewBox="0 0 21 20"><g><g><g><g><path fill="#515151" d="M18.536 14.738c.427.423.65.926.65 1.45 0 .52-.219 1.027-.637 1.463-.182.19-.368.372-.55.545-.266.258-.52.499-.739.765-.004.008-.013.013-.017.021-.642.698-1.462 1.049-2.438 1.049-.084 0-.177-.005-.266-.009-1.449-.093-2.746-.638-3.718-1.099-2.543-1.23-4.77-2.976-6.62-5.187C2.674 11.901 1.652 10.19.967 8.342.69 7.59.326 6.44.428 5.206a3.093 3.093 0 0 1 .916-1.966l1.437-1.45.008-.009c.423-.405.921-.621 1.437-.621.515 0 1.005.216 1.415.621.275.254.541.525.795.787.126.135.261.27.392.401l1.154 1.154c.887.888.887 2.038 0 2.926l-.355.359c-.313.317-.634.647-.98.964.257.57.612 1.133 1.14 1.8 1.09 1.34 2.227 2.376 3.478 3.171.122.076.266.148.418.224.106.055.216.11.325.17l1.336-1.332c.426-.427.925-.651 1.445-.651.523 0 1.018.228 1.428.655zm-.811.799l-2.328-2.33-.008-.008c-.131-.143-.347-.308-.609-.308-.266 0-.494.173-.638.317l-1.445 1.446c-.072.071-.291.291-.642.291a.916.916 0 0 1-.418-.105c-.017-.009-.034-.022-.051-.03a5.364 5.364 0 0 0-.418-.224 5.755 5.755 0 0 1-.52-.283c-1.356-.859-2.586-1.979-3.752-3.416l-.004-.004c-.642-.816-1.065-1.5-1.365-2.228l-.013-.038c-.076-.241-.143-.596.22-.96.004-.008.013-.012.021-.02.368-.33.706-.669 1.06-1.032.123-.119.242-.241.364-.364.448-.448.448-.862 0-1.31L6.026 3.777l-.402-.41a21.34 21.34 0 0 0-.76-.757l-.013-.013c-.135-.135-.35-.296-.617-.296-.215 0-.435.106-.642.3l-1.44 1.442c-.351.35-.542.76-.584 1.256-.063.773.08 1.593.473 2.646.638 1.725 1.602 3.33 3.042 5.068A18.77 18.77 0 0 0 11.32 17.9c.874.418 2.04.909 3.295.99.064.003.131.003.195.003.659 0 1.162-.215 1.588-.672.262-.308.541-.583.816-.845.181-.178.35-.338.515-.516-.004.004-.004 0 0 0 .431-.448.431-.892-.004-1.323z"/></g><g><path fill="#515151" d="M11.22 4.762a5.357 5.357 0 0 1 2.915 1.513 5.39 5.39 0 0 1 1.512 2.917.567.567 0 0 0 .562.474.571.571 0 0 0 .566-.668 6.521 6.521 0 0 0-1.829-3.53 6.515 6.515 0 0 0-3.528-1.83.573.573 0 0 0-.659.465.564.564 0 0 0 .46.66z"/></g><g><path fill="#515151" d="M20.394 8.835a10.728 10.728 0 0 0-3.012-5.812 10.719 10.719 0 0 0-5.81-3.014.568.568 0 0 0-.654.465.573.573 0 0 0 .469.66 9.598 9.598 0 0 1 5.192 2.692 9.578 9.578 0 0 1 2.692 5.195.567.567 0 0 0 .562.474c.033 0 .063-.005.097-.009a.56.56 0 0 0 .464-.65z"/></g></g></g></g></svg>