<svg xmlns="http://www.w3.org/2000/svg" width="20" height="20" viewBox="0 0 20 20"><g><g><g><g><path fill="#fff" d="M18.136 14.745c.427.423.65.926.65 1.45 0 .521-.22 1.029-.638 1.464-.182.19-.368.372-.55.546-.266.258-.52.499-.74.765-.003.009-.012.013-.016.022-.642.697-1.463 1.048-2.44 1.048-.084 0-.177-.004-.265-.008-1.45-.093-2.748-.639-3.72-1.1-2.545-1.23-4.773-2.977-6.625-5.19-1.526-1.835-2.549-3.548-3.234-5.396-.279-.753-.642-1.903-.54-3.138A3.095 3.095 0 0 1 .934 3.24l1.437-1.45.008-.01c.423-.405.922-.621 1.438-.621.515 0 1.006.216 1.416.622.275.254.541.524.795.786.126.136.262.271.393.402l1.154 1.155c.888.888.888 2.038 0 2.927-.119.118-.237.24-.355.36-.313.316-.634.646-.981.963.258.571.613 1.134 1.141 1.802 1.091 1.341 2.228 2.377 3.48 3.172.122.077.266.148.418.225.106.055.216.11.325.169l1.336-1.333c.427-.427.926-.65 1.446-.65.524 0 1.019.228 1.429.655zm-.812.8l-2.33-2.331-.008-.008c-.13-.144-.346-.31-.609-.31-.266 0-.494.174-.638.318l-1.446 1.446c-.071.072-.291.292-.642.292a.916.916 0 0 1-.419-.105c-.017-.009-.033-.022-.05-.03-.123-.076-.267-.148-.419-.224-.169-.085-.347-.174-.52-.284-1.357-.858-2.587-1.979-3.754-3.417l-.004-.004c-.642-.816-1.065-1.502-1.365-2.23a56.569 56.569 0 0 0-.013-.037c-.076-.241-.144-.597.22-.96.004-.009.013-.013.021-.021.368-.33.706-.669 1.061-1.032.123-.119.241-.242.364-.364.448-.448.448-.863 0-1.311L5.619 3.778l-.402-.41a21.346 21.346 0 0 0-.761-.757l-.013-.013c-.135-.135-.35-.296-.617-.296-.215 0-.435.106-.642.3L1.742 4.045c-.35.35-.541.76-.583 1.256-.064.774.08 1.594.473 2.647.639 1.726 1.602 3.333 3.044 5.071a18.779 18.779 0 0 0 6.24 4.89c.874.419 2.041.91 3.297.99.063.004.13.004.194.004.66 0 1.163-.216 1.59-.673.262-.309.54-.584.815-.846.182-.177.351-.338.516-.516-.004.004-.004 0 0 0 .431-.448.431-.892-.004-1.324z"/></g><g><path fill="#fff" d="M10.81 4.763a5.36 5.36 0 0 1 2.917 1.514 5.392 5.392 0 0 1 1.513 2.918c.046.28.287.474.562.474A.572.572 0 0 0 16.368 9a6.525 6.525 0 0 0-1.83-3.532 6.519 6.519 0 0 0-3.53-1.831.574.574 0 0 0-.659.465.565.565 0 0 0 .46.66z"/></g><g><path fill="#fff" d="M19.99 8.84a10.734 10.734 0 0 0-3.015-5.816A10.725 10.725 0 0 0 11.163.01a.569.569 0 0 0-.655.465.574.574 0 0 0 .469.66 9.603 9.603 0 0 1 5.195 2.694 9.583 9.583 0 0 1 2.693 5.198c.046.28.287.474.562.474.034 0 .064-.005.097-.009a.56.56 0 0 0 .465-.651z"/></g></g></g></g></svg>