<svg xmlns="http://www.w3.org/2000/svg" width="21" height="25" viewBox="0 0 21 25"><g><g><g><path fill="#fff" d="M6.273 10.279C5.103 9.109 4.51 7.676 4.51 6.02c0-1.654.593-3.087 1.763-4.257C7.443.594 8.875 0 10.528 0c1.654 0 3.085.593 4.255 1.764 1.17 1.17 1.764 2.603 1.764 4.257 0 1.655-.594 3.087-1.763 4.258-1.17 1.17-2.602 1.764-4.256 1.764-1.653 0-3.085-.594-4.255-1.764zM5.974 6.02c0 1.27.437 2.323 1.335 3.222.898.898 1.95 1.335 3.22 1.335 1.268 0 2.321-.437 3.22-1.335.897-.899 1.333-1.952 1.333-3.222 0-1.269-.436-2.323-1.334-3.221-.898-.898-1.951-1.335-3.22-1.335-1.269 0-2.322.437-3.22 1.335-.897.898-1.334 1.952-1.334 3.221z"/></g><g><path fill="#fff" d="M21.107 20.704c0 1.306-.415 2.363-1.232 3.141-.808.77-1.877 1.159-3.176 1.159H4.668c-1.3 0-2.368-.39-3.176-1.159C.675 23.066.26 22.01.26 20.705c0-.502.017-1 .05-1.477.034-.488.102-1.02.202-1.58.102-.565.232-1.1.389-1.588a7.862 7.862 0 0 1 .652-1.481c.281-.496.612-.928.984-1.283a4.335 4.335 0 0 1 1.414-.889 4.877 4.877 0 0 1 1.804-.327c.255 0 .502.105.978.415.297.194.64.415 1.02.658.326.208.77.404 1.317.58.535.174 1.077.261 1.613.261.535 0 1.078-.087 1.612-.26.548-.177.991-.373 1.319-.581.383-.245.726-.466 1.019-.658.476-.31.723-.415.978-.415.65 0 1.257.11 1.804.327.55.218 1.026.517 1.414.889.371.355.702.787.984 1.283.272.477.491.976.653 1.48.156.49.287 1.024.388 1.59.1.56.169 1.092.202 1.579.034.476.05.973.05 1.476zm-1.464 0c0-.47-.016-.931-.047-1.374-.03-.435-.092-.914-.183-1.423-.09-.502-.205-.973-.342-1.4a6.381 6.381 0 0 0-.531-1.205 4.128 4.128 0 0 0-.723-.948 2.882 2.882 0 0 0-.94-.585 3.37 3.37 0 0 0-1.154-.222c-.051.027-.143.08-.29.175-.302.197-.639.414-1.031.665-.433.277-.99.525-1.656.74a6.7 6.7 0 0 1-2.063.332 6.697 6.697 0 0 1-2.063-.331c-.666-.215-1.223-.464-1.655-.74-.384-.245-.73-.47-1.032-.666a3.9 3.9 0 0 0-.29-.175c-.42.01-.808.086-1.153.222-.373.148-.69.345-.94.585a4.139 4.139 0 0 0-.724.948 6.4 6.4 0 0 0-.53 1.205c-.137.426-.252.898-.342 1.4-.092.508-.153.987-.183 1.423-.031.444-.047.906-.047 1.375 0 .9.255 1.58.778 2.079.533.508 1.242.755 2.166.755h12.031c.924 0 1.632-.247 2.166-.755.523-.498.778-1.179.778-2.08z"/></g></g></g></svg>